<svg xmlns="http://www.w3.org/2000/svg" viewBox="0 0 94.85 96.33"><g id="Layer_2" data-name="Layer 2"><g id="Illustrations"><path d="M80.85,65.91a4.7,4.7,0,0,1-3,1.07c-1.14,0-1.44-.45-1.08-1.51a5.54,5.54,0,0,1,5.27-3.76h.75a95.16,95.16,0,0,0,3.41-9.41,74.82,74.82,0,0,0,2.48-10.21,31.72,31.72,0,0,0,.38-7.28c-.4-.12-.47.25-.63.42A8.07,8.07,0,0,1,81.26,38c-1.3-.15-1.64-.72-1-1.82,1.66-2.73,4.6-4.55,8.46-2.92.09-2.83-3.76-5.89-6.65-5.44a21,21,0,0,0-9.66,4.43,27.67,27.67,0,0,0-4.72,4.71c.44.56.89,1.11,1.32,1.67a29.17,29.17,0,0,1,6,21.26A33.69,33.69,0,0,1,36.29,88.93c-.46.47-1,1-1.5,1.57a22.89,22.89,0,0,1-6.7,5,8.09,8.09,0,0,1-9.73-1.89,8.78,8.78,0,0,1-2.24-5.43c-.05-.63,0-1.27,0-1.92-.47-.14-.68.23-1,.4A13.35,13.35,0,0,1,9,88.86c-.69,0-1.52.2-2-.56s.15-1.29.45-1.87a7.17,7.17,0,0,1,4.84-4,6.72,6.72,0,0,1,3.94.57,34.73,34.73,0,0,1,1.51-4.52,3.2,3.2,0,0,0-.69-1A29,29,0,0,1,11.3,55.71c1.44-11,7.3-19.05,16.92-24.43a2.12,2.12,0,0,0,1.19-1.49A14.78,14.78,0,0,0,30,25.67c-.09-2.49-1.51-3.63-3.95-3.13a19.08,19.08,0,0,0-6.31,2.78c-3.08,1.93-5.93,4.19-8.86,6.24a.29.29,0,0,0,.08.38c2,1.39,2.21,3.46,2,5.64-.06.74-.35,1-1.14.87a4,4,0,0,1-3.64-3.54c-.05-.47,0-.95,0-1.55l-1.9.87a9.31,9.31,0,0,1,.71,4,6.81,6.81,0,0,1-2.22,5.47,3.32,3.32,0,0,1-.47.37c-1,.66-1.57.53-2.12-.55a7.42,7.42,0,0,1-.64-4.66,7.78,7.78,0,0,1,1.75-4.1c-.06-.09-.1-.19-.16-.21C.93,33.66.05,32,0,29.66c-.08-4.3,1.75-7.81,4.51-10.9a41.63,41.63,0,0,1,9.09-7.19l.81-.51c.06,0,.09-.12.18-.22a8.91,8.91,0,0,1-1.15-4.79A7,7,0,0,1,16.31.51c1.1-.9,2-.59,2.43.79a8.2,8.2,0,0,1-.08,4.83c-.34,1.06-.81,2.06-1.33,3.26C18.25,9,19,8.63,19.8,8.3A10.59,10.59,0,0,1,25,7.24c.5,0,1.16,0,1.19.82a9.26,9.26,0,0,1-1.79.2,14.9,14.9,0,0,0-3.64,1.12A59.63,59.63,0,0,0,10,16c2,1.46,2.47,3.51,2.34,5.79A3.24,3.24,0,0,1,12,23c-.41.88-.88,1-1.7.41a4.86,4.86,0,0,1-2.39-4.64c0-.2,0-.4,0-.6a2,2,0,0,0,0-.24.34.34,0,0,0-.42.08A17.55,17.55,0,0,0,1.6,27.66a8.35,8.35,0,0,0-.06,3A2.83,2.83,0,0,0,5.34,33a11.66,11.66,0,0,0,3.31-1.65c2.68-1.88,5.34-3.78,8-5.68a27.44,27.44,0,0,1,8.78-4.52,1.4,1.4,0,0,0,.29-.16c-2.23-3.77-2.2-6.26.08-7.75,2.26,1,3.33,4.44,2.34,7.78a4.32,4.32,0,0,1,3.15,4.41A9.84,9.84,0,0,1,30.84,29c-.1.3-.15.6-.27,1.06a43.9,43.9,0,0,1,9-2.76c.21-1.68-.16-3.76,2.55-3.56a3.18,3.18,0,0,0-.73-1.21,10,10,0,0,1-1.43-8.46,7.17,7.17,0,0,1,3.37-4.35A4.52,4.52,0,0,1,50,12a9.49,9.49,0,0,1,.33,5.77,14.69,14.69,0,0,1-2.5,5.69c2.46.22,2.77,1.88,2.63,3.88A31.42,31.42,0,0,1,66.75,36a57.62,57.62,0,0,1,5.56-5.29c-.26-.94-.51-1.87-.82-2.74-.72-2,1.27-6.05,3.25-7.25,1-.63,1.54-.52,2.09.59A6.94,6.94,0,0,1,76.94,27c-.12.32-.28.63-.5,1.12a32.15,32.15,0,0,1,4-1.37,11,11,0,0,1,5-.05A5.68,5.68,0,0,1,89,29.79a12.19,12.19,0,0,1,1.57,5.82,40.3,40.3,0,0,1-.88,9,2.15,2.15,0,0,0,0,1.35A7.56,7.56,0,0,1,94,49.88a7.4,7.4,0,0,1,.86,3.44c0,1.12-.24,1.38-1.36,1.17a6,6,0,0,1-4.75-3.41l-.24-.52c-.44,0-.35.41-.42.64C86.41,57,84,62.51,81.8,68.09a30.87,30.87,0,0,0-1.45,4.42,6.16,6.16,0,0,0-.11,1.91,1.38,1.38,0,0,0,2.1,1.25A7.82,7.82,0,0,0,85.1,73.6a25,25,0,0,0,3.65-4.72c.08-.15.09-.41.36-.41.37.17.13.37,0,.58a17.35,17.35,0,0,1-4.55,6.63,5.6,5.6,0,0,1-2,1.21A2.61,2.61,0,0,1,79,75.07a6.51,6.51,0,0,1,.15-3.53A37.59,37.59,0,0,1,80.7,67c.14-.35.45-.7.14-1.11L81,66h0ZM81.27,63a.6.6,0,0,0-.57-.09,4.6,4.6,0,0,0-2.8,2.86,6.52,6.52,0,0,0,3.81-2c-.86.08-1.32.89-2.16.62A3.42,3.42,0,0,1,81.28,63s0-.09,0,0S81.27,63,81.27,63ZM9.87,17.61l0-.13.06.09c0,.73.69,1.33.34,2.18-.62-.28-.51-1-1-1.31a3.47,3.47,0,0,0,1.86,3.86,5,5,0,0,0-1-4.6A.26.26,0,0,0,9.87,17.61Zm16.19,2.14c0,.09.3.26.35.37.12-.22-.76-2.19-.2-3.17.4.94.75,1.74,1.17,2.73A6.81,6.81,0,0,0,26,14.6,3.94,3.94,0,0,0,26.06,19.75ZM55.31,51.54c0,.07,0,.11,0,.07s-.07.06.05,0a8.11,8.11,0,0,1-1.4-3.19c1,.7,1.19,1.72,1.93,2.4-.35-2.19-1.18-3.53-2.41-4a3.65,3.65,0,0,0,1.76,4.81S55.28,51.56,55.31,51.54Zm35-3.76-.07,0h.1c.13.94.89,1.55,1.2,2.4.14.39.56.7.29,1.26-1.22-.58-1.53-1.94-2.45-2.8a4.75,4.75,0,0,0,4.15,4.64A5.74,5.74,0,0,0,90.33,47.78ZM15,85.33c-.66-.31-1.24.17-1.86.22s-1.46.59-2.45.23c1.32-1.27,3-1.29,4.47-1.86C12.67,82.57,8.85,85,8.35,87.58a3.59,3.59,0,0,0,1.42-.09A17.33,17.33,0,0,0,15,85.31l0-.1Zm9.08,9.42c0,.09,0,.11,0,.06s-.09,0,.06,0a3.82,3.82,0,0,1-1.33-1.93,4.5,4.5,0,0,1,.68-3.4c.38-.65.63-1.66,1.62-1.53s1.1,1.06,1.36,1.8a5.87,5.87,0,0,1-.33,5,23.87,23.87,0,0,0,8.55-6.16,31.21,31.21,0,0,1-16-9.18c-1.08,2.93-1.6,7.32-1.15,9.42a7.32,7.32,0,0,0,5.28,5.91A1.42,1.42,0,0,0,24.12,94.75ZM58.61,51.09c.78.1,1.43-.38,2.15-.54s1.21-.39,1.81.11c0,.79-.51,1-1.09,1.2q-1.65.51-3.3,1c-.32.09-.64.16-.79.47-.55,1.13-1.92,3.4-1.72,3.54,0,0,.51-.27.71-.38a6.36,6.36,0,0,1,5.42-.3c1.26.48,1.53,1.22.86,2.4a4.35,4.35,0,0,1-2.07,1.74,8.11,8.11,0,0,1-6.81.12c-.08.09-.15.13-.18.2-1.78,3.62-1.94,2.19,0,5.9.68,1.31,1.3,2.65,1.95,4a1,1,0,0,1-.08,1.23,1,1,0,0,1-1.22.15c-.36-.16-.71-.35-1.07-.53l-4-1.88a6,6,0,0,0-.92,1.64c.85,1.29,1.69,2.55,2.51,3.82a2,2,0,0,1,.42,1,.71.71,0,0,1-.29.73.68.68,0,0,1-.88-.11,3.34,3.34,0,0,1-.5-.67c-.7-1.06-1.4-2.13-2.13-3.26-1.5,2.62-3.08,5.14-4.68,7.68a2.07,2.07,0,0,0,1.37.11A24.17,24.17,0,0,0,55,76.78C62.88,71.66,67.06,64.57,66.31,55a19.63,19.63,0,0,0-3.67-9.72c-.14-.2-.25-.5-.65-.53a54.15,54.15,0,0,0-3.38,6.4l0,.05ZM34.47,54.42a.8.8,0,0,0-.17-.72,36.19,36.19,0,0,1-3-6,12.8,12.8,0,0,1-.52-1.34c-.22-.78.12-1.25.93-1.26a4.35,4.35,0,0,1,.95.13,9.84,9.84,0,0,1,3.13,1.46c1.24.79,2.49,1.55,3.67,2.29a1.34,1.34,0,0,0,.59-.9q1.38-3.89,2.77-7.79c.17-.49.35-1,.56-1.45a.75.75,0,0,1,1.48,0c.15.33.26.68.38,1,.94,2.62,1.12,5.4,1.7,8.09a2.83,2.83,0,0,0,.48,1.43L51,47.46A3.32,3.32,0,0,0,52.67,46,.87.87,0,0,1,54,45.54c.42.23.77,0,1.14-.17.57-.23,1.22-.73,1.76-.11s0,1.2-.28,1.76c-.21.38-.5.72-.22,1.21a7.54,7.54,0,0,1,.75,2.48c1.39-2.43,2.73-4.84,4.14-7.22a19.1,19.1,0,0,0-4.5-3.86,22.21,22.21,0,0,0-9.6-3.41,26.88,26.88,0,0,0-7.86.12,24.34,24.34,0,0,0-12.67,6.79,22.1,22.1,0,0,0-6.81,14.38c-.54,8,2.57,14.32,9.09,18.93a22.8,22.8,0,0,0,12.14,4c.73-1.27,1.61-2.39,2.25-3.7-3.86-1.16-4.79-4.23-5.16-7.66a2.13,2.13,0,0,0-.93.36,59,59,0,0,1-6.38,2.76c-.58.21-1.26.61-1.77,0s0-1.21.32-1.74c1.29-2.07,2.65-4.1,4.14-6,.26-.33.63-.62.63-1.16a5.39,5.39,0,0,0-1.54-.58c-2.93-.92-5.87-1.82-8.81-2.75-.52-.17-1.14-.3-1.15-1s.57-.88,1.11-1.06c1.41-.45,2.81-.91,4.22-1.35Zm30.36-16a26.72,26.72,0,0,0-9-6.17,30.41,30.41,0,0,0-17-1.86,24.39,24.39,0,0,0-8.07,2.52A33.54,33.54,0,0,0,20.33,41.6c-5.5,7.13-7.79,15.16-5.66,24,2.61,10.83,9.76,17.35,20.47,20.1a3.67,3.67,0,0,0,1.93.21,26.19,26.19,0,0,0,3-4.16,21.87,21.87,0,0,1-7.13-1.56C24.14,76.52,19.15,70,18.35,60.45a20.53,20.53,0,0,1,2.36-11.34c4.68-9,12.23-13.65,22.22-14.5a23.28,23.28,0,0,1,14.44,3.72,22.78,22.78,0,0,1,4.7,3.92ZM41.74,81.87l-3,4.26a2.06,2.06,0,0,0,1.34.27,31,31,0,0,0,6.8-.43c9.32-1.74,16.63-6.54,21.4-14.74,5.15-8.86,5.39-18,.66-27.21a20.58,20.58,0,0,0-3.28-4.67L63,43.15c0,.14,0,.18,0,.21.21.3.42.59.62.89a21.84,21.84,0,0,1,3.45,18.08,24.56,24.56,0,0,1-12,16A27,27,0,0,1,41.74,81.87Zm12.19-25c-2-.71-3.88-1.38-5.75-2A2.8,2.8,0,0,1,46,52.4c-.48-3.12-1.1-6.21-1.68-9.31a2,2,0,0,0-.42-1.25l-.47,1.23c-1.28,3.44-2.23,7-3.6,10.41a3,3,0,0,1-2,1.88c-3.16,1.15-6.39,2-9.6,3a4.15,4.15,0,0,0-1.45.53c.07.19.23.23.36.28,3,.93,6,2,9,2.77,1.62.43,3.13.78,3.31,2.7,2.45.6,3.44,2.54,4.56,4.47.68-2,1.36-3.86,1.95-5.76a1.67,1.67,0,0,1,1.28-1.25c1.27-.34,2.53-.75,3.79-1.12a1.42,1.42,0,0,0,1-.61C52.71,59.25,53.29,58.13,53.93,56.89ZM44.71,23a1.87,1.87,0,0,0,.91-.65,10.44,10.44,0,0,0,2.31-8.6,2.7,2.7,0,0,0-.18-.57,2.07,2.07,0,0,0-3.44-1,5.3,5.3,0,0,0-2.24,4.06A9.07,9.07,0,0,0,44.71,23ZM42.93,75.38c-1.41-3.28-1.43-3.37-1.16-4.5.85,1,1,2.45,1.9,3.44.37-2.8-1.28-7.07-3.38-8A6.51,6.51,0,0,0,42.93,75.38ZM35.74,63.65a76,76,0,0,0-4.31,6.63A37.92,37.92,0,0,0,38.52,67c-.32-1-.59-1.88-.87-2.79Zm.19-9.74a8.77,8.77,0,0,0,1.94-.39.68.68,0,0,0,.56-.55A10.43,10.43,0,0,0,39,50.83c-1.51-1.35-5.3-3.57-6.3-3.65C33.69,49.5,34.78,51.73,35.93,53.91Zm39.63-32.3c-2.26.93-4.15,5.12-2.4,7.73.62-1.55.24-3.46,1.72-4.77-.14,1.29-.28,2.58-.43,4C76.39,27,77,23.2,75.56,21.61ZM4,39.52c-.33-1.67.4-3,.57-4.43-2,2.4-2.46,6-1.07,7.91,2-1.16,3.13-5.06,2-7A22.6,22.6,0,0,1,4,39.52Zm47.92,9.21-4,1.86a.9.9,0,0,0-.51.45,6.33,6.33,0,0,0,.46,2.12,7.6,7.6,0,0,0,2.27.38,20.52,20.52,0,0,1,1.48-2A2,2,0,0,0,51.92,48.73ZM17.46,1.4c-2.62,1.45-3.55,5.5-2.13,7.7.24-1.41.12-2.93,1.16-4.31.34,1.36-.07,2.48,0,3.62C17.55,6.21,18.38,4,17.46,1.4ZM61.7,57.59a5,5,0,0,0-6.14,1c1.32-.1,2.44-.83,3.95-.87-1.27,1.12-2.76,1.19-4,1.94C58.41,60.25,60.76,59.45,61.7,57.59ZM41.58,27a60.66,60.66,0,0,1,6.47,0,.88.88,0,0,0,.19-.67.67.67,0,0,0-.19-.54,28.42,28.42,0,0,0-6.57.05A1.33,1.33,0,0,0,41.58,27Zm45.74,7c-2-.78-4.63.41-5.94,2.75a6.72,6.72,0,0,0,5.47-1.52c-1,0-1.93.78-3.15.39A15.35,15.35,0,0,1,87.32,34ZM53.42,51.64a9.52,9.52,0,0,0-1.74,2.48,22.53,22.53,0,0,0,3.15.94,4.68,4.68,0,0,0,.92-2A4.24,4.24,0,0,1,53.42,51.64ZM50.24,63.36l-2.81.86a7,7,0,0,0-.5,2.26l1.8.75C49.24,66,50.14,65,50.24,63.36ZM46.43,68c-1.19,2.28-1.68,4.46-1.31,5.89.84-1.49,1.63-2.9,2.41-4.32a1.12,1.12,0,0,0,.27-.79A3.73,3.73,0,0,0,46.43,68Zm-37-34.37c-.08,2.16.62,3.11,2.55,3.63.25-2.24-.39-3.71-1.8-4.13.11.77.89,1.31.81,2.23C10.17,35,10,34.26,9.43,33.61ZM50,67.84a9.52,9.52,0,0,0,3.08,1.31,13.68,13.68,0,0,0-1.92-3.58A13.87,13.87,0,0,0,50,67.84ZM24.46,93.69c.21-.85-.09-1.66.28-2.54a5.62,5.62,0,0,1,.63,2.48A5.11,5.11,0,0,0,25,89.28C23.6,90.66,23.37,92.37,24.46,93.69Z"/><path d="M24.85,50c.93.31,2,.61,3,1s2.12.9,3.17,1.35a3.3,3.3,0,0,1,.53.27.84.84,0,0,1,.42,1,.78.78,0,0,1-1,.46,3.57,3.57,0,0,1-.78-.26q-2.68-1.17-5.34-2.35a2.47,2.47,0,0,1-.53-.29c-.29-.22-.55-.48-.35-.89S24.43,49.93,24.85,50Z"/><path d="M35.45,38.71c.48-.2.74.07.95.45A45.34,45.34,0,0,1,39.24,45c.25.7.23.71-.38,1.25C37.59,45.59,35.12,40.1,35.45,38.71Z"/><path d="M53.47,39.7c.6.4.44.9.12,1.34a40.65,40.65,0,0,1-3.86,4.73,1,1,0,0,1-.6.35c-.55.07-.85-.26-.64-.78a2.84,2.84,0,0,1,.44-.7l3.28-4.13A1.78,1.78,0,0,1,53.47,39.7Z"/><path d="M31.9,63.71A.91.91,0,0,1,31.44,65a34.57,34.57,0,0,1-5.13,1.87.72.72,0,0,1-1-.45.6.6,0,0,1,.42-.76c1.72-.71,3.45-1.38,5.18-2.05A1.22,1.22,0,0,1,31.9,63.71Z"/><path d="M34.25,77.46a1.33,1.33,0,0,1,.08-1.24c.64-1.33,1.44-2.55,2.19-3.81a2.58,2.58,0,0,1,.31-.36.68.68,0,0,1,.85-.21c.37.17.34.52.24.82a5.84,5.84,0,0,1-.53,1.2c-.64,1-1.32,2.06-2,3.1C35.13,77.39,34.83,77.73,34.25,77.46Z"/><path d="M54.31,63.39a1.81,1.81,0,0,1,1.63-.19c1.49.27,3,.61,4.43.93a2.69,2.69,0,0,1,.45.16.67.67,0,0,1,.45.75c0,.39-.32.53-.66.55a3.83,3.83,0,0,1-.83,0,31.55,31.55,0,0,1-4.5-1.14C54.83,64.28,54.38,64.09,54.31,63.39Z"/><path d="M42.49,61.76a3.79,3.79,0,0,1-3.78-3.83,3.88,3.88,0,0,1,4.13-3.76,3.6,3.6,0,0,1,3.6,3.8A3.8,3.8,0,0,1,42.49,61.76Zm.16-1.47A2.28,2.28,0,0,0,44.92,58a2.79,2.79,0,0,0-2.49-2.48A2.51,2.51,0,0,0,40.27,58,2.35,2.35,0,0,0,42.65,60.29Z"/></g></g></svg>